<svg xmlns="http://www.w3.org/2000/svg" viewBox="0 0 12.7 12.7" height="48" width="48">
    <rect ry="1.323" rx="1.323" y="300.775" x="-42.934" height="12.7" width="12.7" fill="#b90000"
          transform="translate(42.934 -300.775)"/>
    <g fill="#b90000" stroke="#fff" stroke-width=".265" stroke-linecap="round" stroke-linejoin="round">
        <path d="M9.258 2.384c-.237.276-.348.898-.107 1.528.24.63.609.493.839 1.135.303.848.162 1.987.162 1.987s.364 1.056.618-.066c.563-2.106-1.512-4.065-1.512-4.584z"/>
        <path d="M9.658 9.436a2.445 2.445 0 0 1-.298.18 6.973 6.973 0 0 0 .379-.623c.094-.104.18-.205.25-.314a2.91 2.91 0 0 0 .112-.196c.247-.444.52-1.164.527-1.903v-.057a2.551 2.551 0 0 0-.056-.552l.005.042-.006-.032.01.059c.05.428.014.845-.166 1.153l-.008.013a3.84 3.84 0 0 0 .02-1.501s-.041-.252-.35-1.015c-.178-.439-.494-.8-.773-1.062-.244-.302-.466-.505-.589-.634-.255-.27-.363-.471-.407-.603-.038-.019-.526-.493-.565-.511-.213.33-.883 1.363-.564 2.329.145.437.51.891.892 1.146.017.02.228.248.328.764.103.533.049.95-.164 1.565-.25.54-.892 1.073-1.493 1.128-1.284.117-1.754-.645-1.754-.645.459.184.966.145 1.275-.045.31-.192.499-.335.651-.279.15.056.27-.106.163-.275a.777.777 0 0 0-.786-.342c-.312.05-.597.297-1.005.058a.847.847 0 0 1-.076-.05c-.027-.018.087.027.06.007a1.991 1.991 0 0 1-.256-.17c-.006-.006.062.021.056.016-.382-.315-.334-.527-.322-.66a.382.382 0 0 1 .196-.298c.056.03.091.054.091.054l-.037-.075c.005-.002.009 0 .014-.003.046.023.148.08.202.116.07.05.092.093.092.093s.018-.01.005-.053a.277.277 0 0 0-.096-.13h.005a.804.804 0 0 1 .117.082c.02-.071.055-.146.047-.278-.005-.094-.002-.118-.019-.154-.015-.031.008-.043.034-.011a.325.325 0 0 0-.022-.073v-.002c.032-.112.676-.401.723-.435a.667.667 0 0 0 .19-.206.528.528 0 0 0 .069-.258c.003-.088-.037-.146-.689-.215-.178-.017-.282-.146-.341-.265a1.762 1.762 0 0 0-.033-.072.574.574 0 0 1-.026-.084 1.57 1.57 0 0 1 .549-.76c.014-.013-.058.003-.043-.01.016-.015.126-.059.146-.069.025-.012-.108-.068-.225-.054-.12.013-.145.027-.209.055.027-.027.11-.061.091-.061-.129.02-.289.095-.426.18a.106.106 0 0 1 .009-.044c-.064.027-.22.137-.266.23a.439.439 0 0 0 .002-.054.837.837 0 0 0-.13.137l-.003.002c-.37-.15-.696-.159-.971-.092-.06-.06-.09-.016-.227-.318-.01-.018.007.018 0 0-.023-.058.014.078 0 0-.23.182-.534.389-.68.534-.001.006.17-.048 0 0-.06.017-.055.052-.064.371-.002.025 0 .052-.002.074a2.046 2.046 0 0 0-.226.338c-.15.26-.316.664-.477 1.303a3.312 3.312 0 0 1 .256-.499c-.134.34-.263.872-.289 1.693a4.79 4.79 0 0 1 .124-.502 4.685 4.685 0 0 0 .344 1.992c.093.226.246.569.506.945a4.467 4.467 0 0 0 3.247 1.395 4.47 4.47 0 0 0 3.352-1.509z"/>
        <path d="M8.672 10.061c1.613-.187 2.327-1.849 1.41-1.882-.828-.026-2.174 1.97-1.41 1.882zm1.526-2.221c1.11-.646.82-2.041.82-2.041s-.428.497-.719 1.29c-.287.786-.768 1.14-.101.75z"/>
        <path d="M6.675 10.887c1.547.493 2.877-.725 2.057-1.133-.745-.367-2.792.9-2.057 1.133z"/>
        <path d="M10.313 8.432c.038-.053.089-.223.134-.299.273-.441.275-.793.275-.8.165-.825.15-1.161.048-1.784-.081-.501-.439-1.219-.748-1.565-.319-.356-.094-.24-.403-.5-.27-.3-.533-.597-.676-.717-1.033-.863-1.01-1.046-.99-1.078l-.014.017-.021-.09s-.565.564-.683 1.505c-.078.614.152 1.255.485 1.664a3.777 3.777 0 0 0 .584.575c.252.36.39.806.39 1.286 0 1.2-.974 2.174-2.175 2.174a2.183 2.183 0 0 1-.487-.054c-.567-.109-.894-.394-1.057-.589-.094-.11-.134-.192-.134-.192.508.182 1.07.144 1.411-.045.345-.19.553-.332.722-.276.166.055.299-.106.18-.273a.899.899 0 0 0-.87-.34c-.345.05-.66.295-1.112.058a.954.954 0 0 1-.085-.05c-.03-.017.097.027.068.008a2.245 2.245 0 0 1-.284-.17c-.007-.005.068.022.061.016-.422-.311-.37-.521-.356-.653a.379.379 0 0 1 .217-.296c.062.03.1.054.1.054l-.04-.075c.005-.002.01 0 .015-.003.05.022.164.08.223.115a.31.31 0 0 1 .103.093s.02-.01.005-.053a.276.276 0 0 0-.106-.13h.005a.9.9 0 0 1 .13.082c.022-.07.06-.144.052-.276-.005-.093-.003-.117-.021-.152-.016-.031.01-.043.037-.011a.298.298 0 0 0-.024-.073v-.002c.036-.11.749-.397.8-.43a.696.696 0 0 0 .21-.205.484.484 0 0 0 .077-.257c.002-.054-.014-.097-.203-.138a5.07 5.07 0 0 0-.559-.074.476.476 0 0 1-.378-.263 1.646 1.646 0 0 0-.037-.072.526.526 0 0 1-.028-.083 1.57 1.57 0 0 1 .607-.753c.016-.013-.063.003-.048-.01.019-.015.14-.059.163-.069.027-.011-.12-.067-.25-.054-.132.014-.16.028-.23.055.029-.027.122-.06.1-.06-.143.019-.32.093-.471.177a.096.096 0 0 1 .009-.042c-.07.026-.244.135-.295.227a.391.391 0 0 0 .003-.053.878.878 0 0 0-.144.136l-.003.002a1.922 1.922 0 0 0-1.075-.091c-.067-.06-.174-.151-.326-.45-.01-.018-.015.037-.023.02a1.376 1.376 0 0 1-.09-.516s-.121.055-.222.288c-.019.041-.03.064-.043.087-.005.007.013-.076.01-.071-.018.03-.063.07-.083.125-.014.04-.033.062-.045.111l-.003.005c-.001-.014.003-.06 0-.05a2.338 2.338 0 0 0-.122.295 2.755 2.755 0 0 0-.128.739c-.002.024 0 .05-.002.072a2.024 2.024 0 0 0-.25.336c-.166.257-.35.658-.527 1.292a3.16 3.16 0 0 1 .282-.495c-.148.337-.29.865-.32 1.68a4.343 4.343 0 0 1 .138-.498 4.215 4.215 0 0 0 .381 1.974 4.593 4.593 0 0 0 1.819 2.062s.39.29 1.06.507l.15.053-.046-.02a4.802 4.802 0 0 0 1.374.202c1.735 0 2.247-.695 2.247-.695s-.002 0-.005.004q.037-.035.07-.072c-.273.258-.898.275-1.131.257.398-.117.66-.216 1.17-.412q.09-.033.183-.075l.02-.01a.317.317 0 0 0 .038-.017 3.459 3.459 0 0 0 .695-.435c.513-.41.624-.808.682-1.07a1.473 1.473 0 0 1-.051.121c-.132.282-.424.455-.742.604a6.824 6.824 0 0 0 .42-.619c.104-.102.136-.263.213-.371z"/>
        <path d="M9.69 9.41c.209-.23.396-.493.538-.792.366-.768.93-2.046.486-3.38-.352-1.055-.835-1.631-1.448-2.195-.996-.915-1.274-1.323-1.274-1.566 0 0-1.15 1.282-.651 2.619.499 1.336 1.52 1.287 2.196 2.682.795 1.642-.644 3.433-1.833 3.935.073-.017 2.644-.598 2.78-2.07-.004.028-.062.435-.794.767zM3.197 3.027c-.01-.018-.016.037-.024.02a1.315 1.315 0 0 1-.086-.516s-.122.056-.223.288c-.019.042-.031.065-.043.088-.006.007.012-.077.01-.072-.018.03-.063.071-.083.123-.016.042-.033.064-.046.116-.004.014.004-.063 0-.053-.234.454-.279 1.14-.254 1.11.5-.533 1.073-.66 1.073-.66-.061-.044-.194-.174-.324-.444z"/>
    </g>
</svg>